<svg width="39" height="13" viewBox="0 0 39 13" fill="none" xmlns="http://www.w3.org/2000/svg">
<path d="M0.457031 11V0.6875H3.18164C3.75195 0.6875 4.20312 0.814453 4.53516 1.06836C4.87109 1.32227 5.11133 1.68359 5.25586 2.15234C5.40039 2.62109 5.47266 3.17969 5.47266 3.82812C5.47266 4.45312 5.41211 4.99805 5.29102 5.46289C5.16992 5.92383 4.95312 6.28125 4.64062 6.53516C4.33203 6.78906 3.89258 6.91602 3.32227 6.91602H2.48438V11H0.457031ZM2.48438 5.06445H2.60156C2.98438 5.06445 3.21875 4.95703 3.30469 4.74219C3.39062 4.52734 3.43359 4.21094 3.43359 3.79297C3.43359 3.40234 3.39062 3.10156 3.30469 2.89062C3.22266 2.67578 3.02539 2.56836 2.71289 2.56836H2.48438V5.06445ZM6.12891 11V0.6875H8.92383C9.67383 0.6875 10.2188 0.871094 10.5586 1.23828C10.9023 1.60156 11.0742 2.20312 11.0742 3.04297V3.49414C11.0742 3.97852 10.9863 4.37109 10.8105 4.67188C10.6387 4.97266 10.375 5.16992 10.0195 5.26367C10.4844 5.38086 10.7949 5.65625 10.9512 6.08984C11.1113 6.51953 11.1914 7.04492 11.1914 7.66602C11.1914 8.33398 11.1289 8.91797 11.0039 9.41797C10.8789 9.91797 10.6523 10.3066 10.3242 10.584C9.99609 10.8613 9.5293 11 8.92383 11H6.12891ZM8.14453 4.57227H8.56641C8.75781 4.57227 8.88086 4.49805 8.93555 4.34961C8.99023 4.20117 9.01758 4.02344 9.01758 3.81641V2.7793C9.01758 2.44727 8.87109 2.28125 8.57812 2.28125H8.14453V4.57227ZM8.34961 9.18359C8.88477 9.18359 9.15234 8.92969 9.15234 8.42188V7.13281C9.15234 6.83984 9.10742 6.60938 9.01758 6.44141C8.93164 6.26953 8.76758 6.18359 8.52539 6.18359H8.14453V9.17188C8.23047 9.17969 8.29883 9.18359 8.34961 9.18359ZM13.5293 11.0938C13.0605 11.0938 12.7012 10.9961 12.4512 10.8008C12.2051 10.6055 12.0371 10.334 11.9473 9.98633C11.8574 9.63477 11.8125 9.22461 11.8125 8.75586V2.21094H13.9219V8.50977C13.9219 8.86133 13.9492 9.10742 14.0039 9.24805C14.0586 9.38477 14.1875 9.45312 14.3906 9.45312C14.6094 9.45312 14.7461 9.35547 14.8008 9.16016C14.8594 8.96484 14.8887 8.71289 14.8887 8.4043V2.21094H16.9805V11H14.8828V10.0625C14.75 10.3984 14.5898 10.6543 14.4023 10.8301C14.2188 11.0059 13.9277 11.0938 13.5293 11.0938ZM19.5527 11.0938C19.1465 11.0938 18.8242 11.0195 18.5859 10.8711C18.3477 10.7227 18.1699 10.5176 18.0527 10.2559C17.9355 9.99414 17.8574 9.6875 17.8184 9.33594C17.7832 8.98438 17.7656 8.60742 17.7656 8.20508V4.38477C17.7656 3.70898 17.8848 3.16211 18.123 2.74414C18.3652 2.32617 18.7734 2.11719 19.3477 2.11719C19.7734 2.11719 20.0996 2.20898 20.3262 2.39258C20.5566 2.57227 20.7344 2.82422 20.8594 3.14844V0.6875H22.9922V11H20.8594V10.0684C20.7422 10.3848 20.5859 10.6348 20.3906 10.8184C20.1992 11.002 19.9199 11.0938 19.5527 11.0938ZM20.3555 9.45312C20.5547 9.45312 20.6875 9.37305 20.7539 9.21289C20.8242 9.05273 20.8594 8.76562 20.8594 8.35156V4.6543C20.8594 4.44727 20.8281 4.24414 20.7656 4.04492C20.707 3.8418 20.5742 3.74023 20.3672 3.74023C20.1406 3.74023 19.998 3.83594 19.9395 4.02734C19.8809 4.21875 19.8516 4.42773 19.8516 4.6543V8.35156C19.8516 9.08594 20.0195 9.45312 20.3555 9.45312ZM26.168 12.5234C25.7617 12.5234 25.4121 12.502 25.1191 12.459C24.8301 12.4199 24.5703 12.3477 24.3398 12.2422C24.1094 12.1367 23.8789 11.9883 23.6484 11.7969L24.3574 10.584C24.8691 10.8887 25.3809 11.041 25.8926 11.041C26.2285 11.041 26.4785 10.9336 26.6426 10.7188C26.8066 10.5039 26.8887 10.2246 26.8887 9.88086V9.01953C26.7207 9.62109 26.2734 9.92188 25.5469 9.92188C25.1289 9.92188 24.791 9.82227 24.5332 9.62305C24.2754 9.42383 24.0879 9.1543 23.9707 8.81445C23.8535 8.47461 23.7949 8.0957 23.7949 7.67773V4.51953C23.7949 4.04688 23.8457 3.63086 23.9473 3.27148C24.0488 2.9082 24.2266 2.625 24.4805 2.42188C24.7344 2.21875 25.0898 2.11719 25.5469 2.11719C25.9336 2.11719 26.2344 2.21484 26.4492 2.41016C26.668 2.60547 26.8145 2.86914 26.8887 3.20117V2.21094H29.0273V9.74609C29.0273 10.7422 28.7969 11.4531 28.3359 11.8789C27.8789 12.3086 27.1562 12.5234 26.168 12.5234ZM26.3965 8.33984C26.7246 8.33984 26.8887 8.04297 26.8887 7.44922V4.46094C26.8887 4.30078 26.8418 4.13672 26.748 3.96875C26.6582 3.80078 26.5332 3.7168 26.373 3.7168C26.1699 3.7168 26.043 3.79297 25.9922 3.94531C25.9414 4.09375 25.916 4.26562 25.916 4.46094V7.44922C25.916 7.66016 25.9414 7.86133 25.9922 8.05273C26.0469 8.24414 26.1816 8.33984 26.3965 8.33984ZM32.3086 11.0938C31.6836 11.0938 31.1855 10.9766 30.8145 10.7422C30.4434 10.5078 30.1777 10.1699 30.0176 9.72852C29.8574 9.28711 29.7773 8.75586 29.7773 8.13477V4.60156C29.7773 3.78516 30.0117 3.16797 30.4805 2.75C30.9492 2.32812 31.5938 2.11719 32.4141 2.11719C34.1016 2.11719 34.9453 2.94531 34.9453 4.60156V5.24023C34.9453 6.01367 34.9375 6.5332 34.9219 6.79883H31.875V8.49805C31.875 8.6543 31.8848 8.80859 31.9043 8.96094C31.9238 9.10938 31.9668 9.23242 32.0332 9.33008C32.1035 9.42773 32.2148 9.47656 32.3672 9.47656C32.5859 9.47656 32.7227 9.38281 32.7773 9.19531C32.832 9.00391 32.8594 8.75586 32.8594 8.45117V7.60742H34.9453V8.10547C34.9453 8.76172 34.8633 9.3125 34.6992 9.75781C34.5391 10.1992 34.2656 10.5332 33.8789 10.7598C33.4961 10.9824 32.9727 11.0938 32.3086 11.0938ZM31.8633 5.75586H32.8594V4.57227C32.8594 4.25586 32.8203 4.0293 32.7422 3.89258C32.6641 3.75195 32.5469 3.68164 32.3906 3.68164C32.2227 3.68164 32.0918 3.74805 31.998 3.88086C31.9082 4.01367 31.8633 4.24414 31.8633 4.57227V5.75586ZM37.5117 11.0938C36.9453 11.0938 36.5625 10.9746 36.3633 10.7363C36.168 10.4941 36.0703 10.125 36.0703 9.62891V4.15039H35.4785V2.55078H36.0703V0.6875H38.1094V2.55078H38.7012V4.15039H38.1094V9.13672C38.1094 9.28125 38.1328 9.38281 38.1797 9.44141C38.2266 9.5 38.3164 9.5293 38.4492 9.5293C38.543 9.5293 38.627 9.52148 38.7012 9.50586V10.9355C38.6543 10.9512 38.5078 10.9805 38.2617 11.0234C38.0156 11.0703 37.7656 11.0938 37.5117 11.0938Z" fill="white"/>
</svg>
